<?xml version="1.0" encoding="UTF-8" standalone="no"?>
<!DOCTYPE svg PUBLIC "-//W3C//DTD SVG 20010904//EN"
              "http://www.w3.org/TR/2001/REC-SVG-20010904/DTD/svg10.dtd">

<svg xmlns="http://www.w3.org/2000/svg"
     width="2.55556in" height="0.522222in"
     viewBox="0 0 230 47">
  <path id="Selection #2"
        fill="none" stroke="black" stroke-width="1"
        d="M 31.00,14.00
           C 31.00,14.00 34.00,14.00 34.00,14.00
             34.00,14.00 34.00,19.00 34.00,19.00
             42.16,19.09 41.99,20.09 42.00,30.00
             42.00,30.00 39.00,30.00 39.00,30.00
             39.00,30.00 39.00,22.00 39.00,22.00
             34.08,23.57 34.17,25.17 34.00,30.00
             34.00,30.00 31.00,30.00 31.00,30.00
             31.00,30.00 31.00,14.00 31.00,14.00 Z
           M 95.00,14.00
           C 95.00,14.00 98.00,14.00 98.00,14.00
             98.00,14.00 98.00,19.00 98.00,19.00
             106.16,19.09 105.99,20.09 106.00,30.00
             106.00,30.00 103.00,30.00 103.00,30.00
             103.00,30.00 103.00,22.00 103.00,22.00
             98.08,23.57 98.17,25.17 98.00,30.00
             98.00,30.00 95.00,30.00 95.00,30.00
             95.00,30.00 95.00,14.00 95.00,14.00 Z
           M 171.00,14.00
           C 171.00,14.00 176.00,14.00 176.00,14.00
             176.00,14.00 176.00,30.00 176.00,30.00
             176.00,30.00 178.00,30.00 178.00,30.00
             178.00,30.00 178.00,19.00 178.00,19.00
             182.57,19.00 185.17,18.26 189.00,21.00
             194.73,16.78 199.56,19.32 201.00,26.00
             201.00,26.00 192.00,27.00 192.00,27.00
             192.00,27.00 200.00,27.00 200.00,27.00
             200.00,27.00 200.00,30.00 200.00,30.00
             200.00,30.00 204.00,30.00 204.00,30.00
             204.00,30.00 201.00,19.00 201.00,19.00
             201.00,19.00 206.00,19.00 206.00,19.00
             206.00,19.00 207.00,23.00 207.00,23.00
             209.20,19.81 209.16,19.67 213.00,19.00
             213.00,19.00 215.00,23.00 215.00,23.00
             215.00,23.00 215.00,19.00 215.00,19.00
             215.00,19.00 220.00,19.00 220.00,19.00
             220.00,19.00 217.00,30.00 217.00,30.00
             217.00,30.00 220.00,32.00 220.00,32.00
             220.00,32.00 133.00,32.00 133.00,32.00
             135.54,24.19 131.27,25.13 141.00,22.00
             141.00,22.00 134.00,22.00 134.00,22.00
             136.56,18.18 142.71,17.92 144.98,21.31
             146.28,23.27 146.00,27.64 146.00,30.00
             146.00,30.00 148.00,30.00 148.00,30.00
             148.00,30.00 148.00,19.00 148.00,19.00
             150.81,19.00 158.03,18.29 159.83,20.57
             161.32,22.47 161.00,27.58 161.00,30.00
             161.00,30.00 165.00,30.00 165.00,30.00
             160.81,22.84 162.83,19.29 171.00,19.00
             171.00,19.00 171.00,14.00 171.00,14.00 Z
           M 5.00,19.00
           C 9.08,20.34 9.21,21.20 11.00,25.00
             13.00,21.65 13.21,20.33 17.00,19.00
             16.14,22.20 13.13,31.18 10.51,32.98
             9.10,33.94 7.60,33.87 6.00,34.00
             9.78,26.74 9.21,31.07 5.00,19.00 Z
           M 19.00,19.00
           C 28.55,19.04 28.00,19.75 28.00,30.00
             26.13,30.00 21.88,30.17 20.31,29.40
             19.25,28.88 18.61,28.12 18.46,26.91
             18.01,23.34 22.53,22.80 25.00,22.00
             25.00,22.00 19.00,22.00 19.00,22.00
             19.00,22.00 19.00,19.00 19.00,19.00 Z
           M 46.31,20.02
           C 48.72,19.14 51.29,18.49 53.40,20.60
             55.52,22.71 55.74,28.57 50.94,29.67
             44.86,31.06 41.92,24.74 46.31,20.02 Z
           M 59.31,20.02
           C 61.72,19.14 64.29,18.49 66.40,20.60
             68.52,22.71 68.74,28.57 63.94,29.67
             57.86,31.06 54.92,24.74 59.31,20.02 Z
           M 69.00,19.00
           C 73.08,20.34 73.21,21.20 75.00,25.00
             77.00,21.65 77.21,20.33 81.00,19.00
             80.14,22.20 77.13,31.18 74.51,32.98
             73.10,33.94 71.60,33.87 70.00,34.00
             73.78,26.74 73.21,31.07 69.00,19.00 Z
           M 83.00,19.00
           C 92.55,19.04 92.00,19.75 92.00,30.00
             90.13,30.00 85.88,30.17 84.31,29.40
             83.25,28.88 82.61,28.12 82.46,26.91
             82.01,23.34 86.53,22.80 89.00,22.00
             89.00,22.00 83.00,22.00 83.00,22.00
             83.00,22.00 83.00,19.00 83.00,19.00 Z
           M 110.31,20.02
           C 112.72,19.14 115.29,18.49 117.40,20.60
             119.52,22.71 119.74,28.57 114.94,29.67
             108.86,31.06 105.92,24.74 110.31,20.02 Z
           M 123.31,20.02
           C 125.72,19.14 128.29,18.49 130.40,20.60
             132.52,22.71 132.74,28.57 127.94,29.67
             121.86,31.06 118.92,24.74 123.31,20.02 Z
           M 62.84,22.17
           C 59.50,22.94 59.93,25.70 61.53,26.60
             63.50,27.72 66.67,24.63 62.84,22.17 Z
           M 188.00,21.00
           C 182.12,22.35 183.02,24.59 183.00,30.00
             183.00,30.00 190.00,30.00 190.00,30.00
             190.00,30.00 188.00,21.00 188.00,21.00 Z
           M 47.00,27.00
           C 52.67,26.00 52.67,23.00 47.00,22.00
             47.00,22.00 47.00,27.00 47.00,27.00 Z
           M 111.00,27.00
           C 116.67,26.00 116.67,23.00 111.00,22.00
             111.00,22.00 111.00,27.00 111.00,27.00 Z
           M 124.00,27.00
           C 129.67,26.00 129.67,23.00 124.00,22.00
             124.00,22.00 124.00,27.00 124.00,27.00 Z
           M 156.00,22.00
           C 156.00,22.00 153.00,22.00 153.00,22.00
             153.00,22.00 153.00,30.00 153.00,30.00
             153.00,30.00 156.00,30.00 156.00,30.00
             156.00,30.00 156.00,22.00 156.00,22.00 Z
           M 171.00,22.00
           C 166.70,23.51 166.70,25.49 171.00,27.00
             171.00,27.00 171.00,22.00 171.00,22.00 Z
           M 196.00,22.00
           C 196.00,22.00 192.00,24.00 192.00,24.00
             192.00,24.00 196.00,22.00 196.00,22.00 Z
           M 25.00,25.00
           C 25.00,25.00 21.00,27.00 21.00,27.00
             21.00,27.00 25.00,25.00 25.00,25.00 Z
           M 89.00,25.00
           C 89.00,25.00 85.00,27.00 85.00,27.00
             85.00,27.00 89.00,25.00 89.00,25.00 Z
           M 211.00,25.00
           C 211.00,25.00 209.00,30.00 209.00,30.00
             211.93,28.69 211.33,28.04 211.00,25.00 Z" />
</svg>
